<svg xmlns="http://www.w3.org/2000/svg" viewBox="0 0 47.14 64.81"><defs><style>.cls-1{fill:#fbc0a4;}.cls-2{fill:#f69d7d;}.cls-3{fill:#cb4453;}.cls-4{fill:#dd5664;}.cls-5{fill:#fff;}.cls-6{fill:#403433;}.cls-7{fill:#f9b092;}</style></defs><g id="Layer_2" data-name="Layer 2"><g id="OBJECTS"><path class="cls-1" d="M16.5,60.1,14.53,41l14.6,7.43-.14.7-.41,9.63c-.12,2.76,0,5.54-2.9,6h0C22.22,65.28,16.83,63.28,16.5,60.1Z"/><path class="cls-2" d="M28.73,55.07l.26-6,.14-.7L14.53,41l.93,9C18.07,53.91,23.22,55.08,28.73,55.07Z"/><path class="cls-1" d="M38.66,32.83c-.06-4.56.22-11.13-1.61-15.9h0A9.3,9.3,0,0,0,33.19,12c-2-1.44-4.79-2.38-9-2.71-8.79-.7-14.5,2.59-18.32,8.31-2.85,4.27-1.63,9.86-1.05,11.88C3.22,29.62,1,30.6,1.48,35.05c.79,6.79,5.71,6.93,7.16,7.22,0,0,2.71,12.11,17.65,10.95S38.77,40.5,38.66,32.83Z"/><path class="cls-3" d="M21.71,40.75s3.88,1.67,7.11,1.31c0,0,.87,4.28-4,3.68S21.71,40.75,21.71,40.75Z"/><path class="cls-4" d="M25.75,42.89a11.05,11.05,0,0,0-1.38-1.27,20.47,20.47,0,0,1-2.66-.87s-1.76,4.38,3.11,5a4.75,4.75,0,0,0,2.49-.25A10,10,0,0,0,25.75,42.89Z"/><path class="cls-5" d="M27.2,42.09a19.3,19.3,0,0,1-5.49-1.34,5.19,5.19,0,0,0-.3,1.44,25.28,25.28,0,0,0,5.77,1.18C27.18,42.94,27.19,42.51,27.2,42.09Z"/><path class="cls-6" d="M23.43,25.79v0c-1.31-.66-5.38-.17-8.12,1.31a1.7,1.7,0,0,0,1.36,1.58,4.91,4.91,0,0,0,2.22-.08c1.3-.24,2.47-.63,3.71-.95A1.27,1.27,0,0,0,23.43,25.79Z"/><path class="cls-6" d="M28.31,25.73h0a9.23,9.23,0,0,1,7.46.79,1.83,1.83,0,0,1-1.26,1.64,4.27,4.27,0,0,1-2,.06c-1.13-.16-2.17-.45-3.25-.68A1.27,1.27,0,0,1,28.31,25.73Z"/><path class="cls-6" d="M18.45,32.42a1.95,1.95,0,1,0,2-1.86A1.95,1.95,0,0,0,18.45,32.42Z"/><path class="cls-6" d="M28.82,32.42a1.95,1.95,0,1,0,2-1.86A1.95,1.95,0,0,0,28.82,32.42Z"/><path class="cls-7" d="M38.34,39a3.68,3.68,0,1,1-3.85-3.51A3.69,3.69,0,0,1,38.34,39Z"/><path class="cls-7" d="M19.67,39.49A3.68,3.68,0,1,1,15.83,36,3.66,3.66,0,0,1,19.67,39.49Z"/><path class="cls-7" d="M3.42,32.58c-.52,1.8.22,3.7,1,5.42a2.84,2.84,0,0,0,.91,1.37,1,1,0,0,0,1.45-.23c.23-.49-.11-1-.38-1.5s-.42-1.17,0-1.46c.21-.13.49-.12.71-.24.48-.25.48-.94.35-1.47a8,8,0,0,0-.81-2.11c-.36-.65-.92-1.31-1.66-1.3S3.64,31.84,3.42,32.58Z"/><path class="cls-2" d="M28.38,38.05a.52.52,0,0,1,.17.62,1.39,1.39,0,0,1-.76.82,1.37,1.37,0,0,1-1.11.07c-.28-.12-.41-.32-.38-.51.1-.39.5-.63.88-.83A1.5,1.5,0,0,1,28.38,38.05Z"/><path class="cls-6" d="M39.35,17.85c4-3.43,6.36-8.23,4.93-13.79-2.17,1-4.22,1.78-6.39,2.76C40.17,4.77,40.66,2.91,40.5,0c0,0-26.92,5.77-32.63,10.14a8.92,8.92,0,0,0-3.15,3.79L.63,8.9S-1.82,15,3,17.06A6.33,6.33,0,0,0,.49,20.85C-.83,26,3,30.19,3,30.19a3.88,3.88,0,0,1,3.41-.33c1.73.61,3.68,3.7,3.58,6.75l1.59-.21L11.39,30s2.11-1.55,3.93-6.92a15.8,15.8,0,0,0,8.94,1.67l-5-4.82a22.52,22.52,0,0,0,13.6,4.76c5.55.27,11.44-2.13,14.26-6.91C44.76,17.88,41.74,17.71,39.35,17.85Z"/></g></g></svg>