<svg width="250" height="244" viewBox="0 0 250 244" fill="none" xmlns="http://www.w3.org/2000/svg">
<g clip-path="url(#clip0)">
<path d="M128.039 189.019C128.039 173.273 128.246 157.459 127.901 141.713C127.762 137.017 128.522 134.392 133.633 133.771C139.572 133.08 145.511 132.182 151.312 130.801C159.323 128.867 167.541 128.453 175.622 126.243C181.423 124.655 187.845 123.619 193.923 123.135C203.453 122.445 212.638 118.577 222.445 119.89C227.417 120.58 229.489 123.757 230.456 127.97C230.939 129.972 230.18 132.251 230.594 134.254C231.975 140.193 228.522 143.025 224.24 145.994C219.337 149.378 216.436 154.696 215.815 160.497C214.917 168.646 215.055 177.003 221.823 183.08C223.826 184.876 225.483 187.362 228.798 187.569C230.041 187.638 230.525 189.088 230.525 190.608C230.456 198.481 230.594 206.285 230.456 214.157C230.387 218.37 222.928 227.762 217.334 228.384C208.08 229.489 199.102 232.735 189.848 233.564C183.218 234.185 176.934 236.119 170.373 236.947C159.876 238.26 149.448 239.917 139.157 242.541C135.912 243.37 132.39 242.403 129.006 243.577C127.624 244.061 128.108 242.196 128.108 241.436C128.039 223.964 128.039 206.492 128.039 189.019Z" fill="#0095DB"/>
<path d="M120.856 189.227C120.856 206.423 120.856 223.688 120.856 240.884C120.856 243.508 120.511 243.439 117.68 243.163C111.257 242.611 105.11 241.022 98.895 239.848C89.5028 238.052 80.1105 236.602 70.7182 235.014C64.6409 233.978 58.4945 233.08 52.4171 231.975C43.7155 230.387 34.5304 230.801 26.5884 226.174C22.0304 223.481 18.9227 219.337 18.6464 214.019C18.3011 206.423 18.7155 198.826 18.4392 191.229C18.3702 188.881 19.5442 187.983 21.2017 187.5C28.6602 185.29 33.9088 176.036 34.4613 168.923C35.221 158.909 32.5276 150 24.3094 144.82C14.6409 138.812 19.1298 131.077 19.8204 123.826C19.9586 122.376 23.2044 120.235 25.2072 120.028C33.0111 119.199 40.5387 121.271 48.2044 122.307C54.8343 123.204 61.395 124.793 67.9558 125.76C78.384 127.348 88.674 130.249 99.1713 131.423C105.663 132.182 111.878 133.702 118.301 134.599C120.304 134.876 120.994 135.152 120.994 137.293C120.787 154.627 120.856 171.961 120.856 189.227Z" fill="#0095DB"/>
<path d="M125.552 119.682C113.26 120.925 103.039 116.367 94.1298 110.221C86.5332 104.972 79.6961 97.9282 77.21 88.1215C76.9337 86.9475 74.2403 86.1188 75.9669 85.0138C78.453 83.4945 79.2818 86.8785 80.2486 87.9834C86.395 94.5442 93.7845 98.6188 102.141 101.45C104.627 102.279 105.041 106.008 108.84 105.732C111.188 105.594 113.398 105.18 114.848 104.006C116.229 102.901 117.058 100.276 116.851 98.4116C116.575 95.7182 115.055 93.163 112.086 92.3343C108.84 91.3674 106.561 93.0939 103.798 94.6823C102.279 95.5111 98.895 93.9917 96.8232 92.7486C92.5414 90.2624 87.5691 88.0525 84.7376 84.2541C80.0414 78.1077 73.2044 72.1685 73.6879 63.7431C74.0332 56.837 76.7265 50.2762 80.2486 43.8536C85.3591 34.5304 93.3011 28.7983 101.934 23.9641C106.561 21.3398 112.293 19.9586 117.68 19.5442C126.934 18.7845 136.395 18.7845 145.235 22.6519C154.558 26.7265 162.569 32.5967 168.37 40.953C175.691 51.5884 178.315 63.8122 176.588 76.4503C175.414 84.8066 172.03 92.4033 166.713 99.5856C160.843 107.528 153.246 112.845 144.959 116.367C138.881 118.854 131.975 121.616 125.552 119.682Z" fill="#0095DA"/>
<path d="M126.796 0.690613C136.533 2.20995 147.376 2.90056 157.666 8.21824C166.575 12.8453 173.964 18.6464 181.008 25.6906C187.224 32.0442 190.539 39.8481 195.028 47.0994C196.133 48.826 196.271 51.3122 196.547 53.453C197.169 58.4945 202.624 59.7376 204.489 63.9503C207.459 70.7182 207.942 77.1409 203.66 83.3564C199.033 90.0553 192.472 92.8867 184.323 92.2652C183.08 92.1961 182.735 91.5746 182.942 90.5387C184.876 80.5249 187.293 70.6492 188.398 60.5663C188.812 57.1133 186.05 53.2459 184.876 49.5856C182.804 43.0249 179.144 37.1547 174.724 32.3204C168.715 25.7597 161.533 20.6492 153.177 16.6437C143.163 11.8785 132.942 9.66851 122.169 10.221C113.881 10.6354 105.87 12.3619 98.1354 16.3674C92.3343 19.4061 86.6713 22.4448 81.768 26.5193C76.3122 31.1464 72.1685 37.0856 68.5083 43.3702C64.3646 50.5525 61.395 58.3564 61.6022 66.3674C61.7403 74.1713 64.2265 81.9061 65.8149 89.6409C66.2293 91.5746 65.1243 92.058 63.8812 92.1271C56.2155 92.2652 47.6519 89.779 44.1989 81.4917C40.1243 71.8923 41.9199 61.395 52.6243 55.3867C55.5249 53.7293 54.7652 50.8287 55.5939 48.6188C61.0497 34.2541 70.0967 22.9972 82.5967 14.0193C93.0939 6.56078 104.489 2.76244 117.058 1.45028C119.889 1.31216 122.721 1.10498 126.796 0.690613Z" fill="#0095DB"/>
<path d="M1.91243e-06 166.022C-0.483424 152.831 6.56078 145.58 14.2956 146.685C20.7873 147.583 24.9309 152.762 27.0718 159.047C29.3508 165.815 28.384 173.273 23.1354 179.075C20.5111 181.975 16.9199 183.494 14.2956 182.942C8.01105 181.63 2.41713 178.315 1.03591 171.064C0.552488 168.577 0.0690627 166.229 1.91243e-06 166.022Z" fill="#0095DB"/>
<path d="M249.931 163.191C249.931 174.862 245.856 180.041 235.497 182.942C233.425 183.494 229.765 182.113 227.279 179.489C222.859 174.862 221.685 169.682 221.823 163.674C222.03 157.044 229.144 147.721 235.566 146.478C240.262 145.58 247.583 150.414 248.964 156.285C249.586 158.84 250.138 161.257 249.931 163.191Z" fill="#0095DB"/>
</g>
<defs>
<clipPath id="clip0">
<rect width="250" height="243.646" fill="white"/>
</clipPath>
</defs>
</svg>
