<svg width="80" height="80" viewBox="0 0 80 80" fill="none" xmlns="http://www.w3.org/2000/svg">
<path d="M62.2216 35.5552C63.7326 35.5552 65.1993 35.7329 66.6659 35.9552V14.5332L33.333 0L0 14.5332V36.3552C0 56.5327 14.2221 75.4214 33.333 79.9991C35.7774 79.4214 38.1329 78.5769 40.444 77.5547C37.3774 73.1992 35.5552 67.9104 35.5552 62.2216C35.5552 47.5106 47.5106 35.5552 62.2216 35.5552Z" fill="#23242F"/>
<path d="M62.2224 44.4423C52.4003 44.4423 44.4448 52.3977 44.4448 62.2198C44.4448 72.042 52.4003 79.9974 62.2224 79.9974C72.0445 79.9974 80 72.042 80 62.2198C80 52.3977 72.0445 44.4423 62.2224 44.4423ZM62.2224 50.5755C64.9779 50.5755 67.2001 52.8422 67.2001 55.5532C67.2001 58.2643 64.9335 60.531 62.2224 60.531C59.5113 60.531 57.2447 58.2643 57.2447 55.5532C57.2447 52.8422 59.4669 50.5755 62.2224 50.5755ZM62.2224 74.4419C58.0891 74.4419 54.4892 72.3975 52.267 69.242C52.4892 66.042 58.978 64.442 62.2224 64.442C65.4668 64.442 71.9556 66.042 72.1779 69.242C69.9557 72.3975 66.3557 74.4419 62.2224 74.4419Z" fill="#23242F"/>
</svg>
