<svg width="70" height="70" viewBox="0 0 70 70" fill="none" xmlns="http://www.w3.org/2000/svg">
<g opacity="0.48">
<path d="M40.3377 55.4167C39.9019 55.4181 39.4714 55.322 39.0777 55.1352C38.684 54.9485 38.3372 54.6759 38.0627 54.3375L23.9752 36.8375C23.5462 36.3156 23.3116 35.661 23.3116 34.9854C23.3116 34.3098 23.5462 33.6552 23.9752 33.1333L38.5585 15.6333C39.0536 15.0377 39.765 14.6631 40.5362 14.592C41.3074 14.5209 42.0754 14.7591 42.671 15.2542C43.2666 15.7492 43.6412 16.4606 43.7123 17.2319C43.7834 18.0031 43.5452 18.771 43.0502 19.3667L30.0127 35L42.6126 50.6333C42.9693 51.0615 43.1959 51.5828 43.2655 52.1356C43.3352 52.6885 43.245 53.2497 43.0057 53.7529C42.7663 54.2561 42.3879 54.6802 41.915 54.9751C41.4422 55.2699 40.8948 55.4232 40.3377 55.4167Z" fill="black"/>
</g>
</svg>
