<svg width="100" height="100" viewBox="0 0 100 100" fill="none" xmlns="http://www.w3.org/2000/svg">
<path d="M50 24.3126L49.0219 24.6094L9.95938 37.6969L1.07812 40.6251L6.25 42.2813V69.6251C4.38437 70.7094 3.125 72.6876 3.125 75.0001C3.125 76.6577 3.78348 78.2474 4.95558 79.4195C6.12769 80.5916 7.7174 81.2501 9.375 81.2501C11.0326 81.2501 12.6223 80.5916 13.7944 79.4195C14.9665 78.2474 15.625 76.6577 15.625 75.0001C15.625 72.6876 14.3656 70.7094 12.5 69.6251V44.4376L18.75 46.4844V62.5001C18.75 65.0626 20.3125 67.1876 22.1688 68.6563C24.025 70.1157 26.3312 71.1469 29.1 72.0719C34.6437 73.9157 41.95 75.0001 50 75.0001C58.05 75.0001 65.3563 73.9188 70.9 72.0688C73.6688 71.1469 75.975 70.1157 77.8313 68.6532C79.6875 67.1876 81.25 65.0626 81.25 62.5001V46.4844L90.0406 43.5532L98.9219 40.6251L90.0375 37.6938L50.975 24.6094L50 24.3126ZM50 30.8594L79.2969 40.6251L50 50.3907L20.7031 40.6251L50 30.8594ZM25 48.6344L49.025 56.6407L50 56.9344L50.9781 56.6376L75 48.6313V62.5001C75 62.5313 75.0125 62.8938 74.0219 63.6719C73.0344 64.4532 71.2625 65.4376 68.9438 66.2126C64.3125 67.7532 57.4844 68.7501 50 68.7501C42.5156 68.7501 35.6875 67.7563 31.0531 66.2094C28.7406 65.4376 26.9656 64.4501 25.9781 63.6719C24.9844 62.8907 25 62.5313 25 62.5001V48.6313V48.6344Z" fill="#23242F"/>
</svg>
