<svg width="70" height="70" viewBox="0 0 70 70" fill="none" xmlns="http://www.w3.org/2000/svg">
<path d="M29.1667 23.3333H46.6667V27.2221H29.1667V23.3333Z" fill="#D92136" fill-opacity="0.7"/>
<path d="M29.1667 31.1111H46.6667V35H29.1667V31.1111Z" fill="#D92136" fill-opacity="0.7"/>
<path d="M29.1667 38.8889H46.6667V42.7778H29.1667V38.8889Z" fill="#D92136" fill-opacity="0.7"/>
<path d="M29.1667 46.6667H46.6667V50.5556H29.1667V46.6667Z" fill="#D92136" fill-opacity="0.7"/>
<path d="M21.3889 15.5554H25.2778V19.4443H21.3889V15.5554Z" fill="#D92136" fill-opacity="0.7"/>
<path d="M21.3889 23.3333H25.2778V27.2221H21.3889V23.3333Z" fill="#D92136" fill-opacity="0.7"/>
<path d="M21.3889 31.1111H25.2778V35H21.3889V31.1111Z" fill="#D92136" fill-opacity="0.7"/>
<path d="M21.3889 38.8889H25.2778V42.7778H21.3889V38.8889Z" fill="#D92136" fill-opacity="0.7"/>
<path d="M21.3889 46.6667H25.2778V50.5556H21.3889V46.6667Z" fill="#D92136" fill-opacity="0.7"/>
<path d="M29.1667 15.5554V19.4443H46.0056C45.2404 18.2403 44.6573 16.9299 44.275 15.5554H29.1667Z" fill="#D92136" fill-opacity="0.7"/>
<path d="M54.4444 25.7056V62.2222H15.5555V7.7778H44.2944C44.6706 6.40446 45.2471 5.09407 46.0055 3.88892H15.5555C14.5241 3.88892 13.535 4.29864 12.8057 5.02794C12.0764 5.75725 11.6667 6.74641 11.6667 7.7778V62.2222C11.6667 63.2536 12.0764 64.2428 12.8057 64.9721C13.535 65.7014 14.5241 66.1111 15.5555 66.1111H54.4444C55.4758 66.1111 56.465 65.7014 57.1943 64.9721C57.9236 64.2428 58.3333 63.2536 58.3333 62.2222V26.25C57.0184 26.2449 55.7102 26.0618 54.4444 25.7056Z" fill="#D92136" fill-opacity="0.7"/>
<path d="M58.3333 21.389C63.7028 21.389 68.0556 17.0362 68.0556 11.6668C68.0556 6.29737 63.7028 1.94458 58.3333 1.94458C52.9639 1.94458 48.6111 6.29737 48.6111 11.6668C48.6111 17.0362 52.9639 21.389 58.3333 21.389Z" fill="#D92136" fill-opacity="0.7"/>
</svg>
